<?xml version="1.0" encoding="UTF-8" standalone="no"?>
<!DOCTYPE svg PUBLIC "-//W3C//DTD SVG 1.1//EN" "http://www.w3.org/Graphics/SVG/1.1/DTD/svg11.dtd">
<svg version="1.1" xmlns="http://www.w3.org/2000/svg" width="100" height="100" viewBox="-0.9 -0.9 1.8 1.8">
	<g style="stroke-width:0.1;stroke-linejoin:round;opacity:1">
		<polygon fill="#000000" stroke="#000000" points="-0.705,-0.705 0.705,-0.705 0.705,0.705 -0.705,0.705"/>
	</g>
	<g style="opacity:1;stroke-opacity:0.5;stroke-width:0;stroke-linejoin:round">
		<polygon fill="#FEFE00" stroke="#000000" points="-0.7125,-0.7125 -0.2875,-0.7125 -0.2875,-0.2875 -0.7125,-0.2875"/>
		<polygon fill="#FEFE00" stroke="#000000" points="-0.2125,-0.7125 0.2125,-0.7125 0.2125,-0.2875 -0.2125,-0.2875"/>
		<polygon fill="#FEFE00" stroke="#000000" points="0.2875,-0.7125 0.7125,-0.7125 0.7125,-0.2875 0.2875,-0.2875"/>
		<polygon fill="#FEFE00" stroke="#000000" points="-0.7125,-0.2125 -0.2875,-0.2125 -0.2875,0.2125 -0.7125,0.2125"/>
		<polygon fill="#FEFE00" stroke="#000000" points="-0.2125,-0.2125 0.2125,-0.2125 0.2125,0.2125 -0.2125,0.2125"/>
		<polygon fill="#FEFE00" stroke="#000000" points="0.2875,-0.2125 0.7125,-0.2125 0.7125,0.2125 0.2875,0.2125"/>
		<polygon fill="#FEFE00" stroke="#000000" points="-0.7125,0.2875 -0.2875,0.2875 -0.2875,0.7125 -0.7125,0.7125"/>
		<polygon fill="#FEFE00" stroke="#000000" points="-0.2125,0.2875 0.2125,0.2875 0.2125,0.7125 -0.2125,0.7125"/>
		<polygon fill="#FEFE00" stroke="#000000" points="0.2875,0.2875 0.7125,0.2875 0.7125,0.7125 0.2875,0.7125"/>
	</g>
	<g style="opacity:1;stroke-opacity:1;stroke-width:0.04;stroke-linecap:round">
		<path d="M 2.77555756156E-17,-0.5 L 0,0.5" style="fill:none;stroke:#808080;stroke-opacity:1"/>
		<path transform=" translate(0,0.5) scale(0.011) rotate(90)" d="M 5.77,0.0 L -2.88,5.0 L -2.88,-5.0 L 5.77,0.0 z" style="fill:#808080;stroke-width:0;stroke-linejoin:round"/>
		<path d="M 0,0.5 L 2.77555756156E-17,-0.5" style="fill:none;stroke:#808080;stroke-opacity:1"/>
		<path transform=" translate(2.77555756156E-17,-0.5) scale(0.011) rotate(-90)" d="M 5.77,0.0 L -2.88,5.0 L -2.88,-5.0 L 5.77,0.0 z" style="fill:#808080;stroke-width:0;stroke-linejoin:round"/>
		<path d="M -0.5,-1.11022302463E-16 L 0.5,-1.11022302463E-16" style="fill:none;stroke:#808080;stroke-opacity:1"/>
		<path transform=" translate(0.5,-1.11022302463E-16) scale(0.011) rotate(0)" d="M 5.77,0.0 L -2.88,5.0 L -2.88,-5.0 L 5.77,0.0 z" style="fill:#808080;stroke-width:0;stroke-linejoin:round"/>
		<path d="M 0.5,-1.11022302463E-16 L -0.5,-1.11022302463E-16" style="fill:none;stroke:#808080;stroke-opacity:1"/>
		<path transform=" translate(-0.5,-1.11022302463E-16) scale(0.011) rotate(180)" d="M 5.77,0.0 L -2.88,5.0 L -2.88,-5.0 L 5.77,0.0 z" style="fill:#808080;stroke-width:0;stroke-linejoin:round"/>
	</g>
</svg>